<svg width="89" height="33" viewBox="0 0 89 33" fill="none" xmlns="http://www.w3.org/2000/svg">
<path d="M8.88811 8.53318H0V0.235352H27.6234V8.53318H18.7334V32.742H8.88811V8.53318ZM29.152 0.235352H56.0111V8.53318H38.998V12.5358H56.0111V20.3441H38.998V24.4441H56.0111V32.742H29.152V0.235352ZM57.6348 0.235352H73.7884C84.3987 0.235352 88.125 8.24036 88.125 16.4405C88.125 26.3973 82.9626 32.742 71.8763 32.742H57.6348V0.235352ZM67.4809 24.4441H71.3024C77.4194 24.4441 78.2817 19.369 78.2817 16.3431C78.2817 14.2922 77.6126 8.63088 70.5381 8.63088H67.383L67.4809 24.4441Z" fill="#B1ACD2"/>
</svg>
