<svg width="198" height="38" viewBox="0 0 198 38" fill="none" xmlns="http://www.w3.org/2000/svg">
<path d="M193.403 11.876C193.403 11.4383 193.533 11.0104 193.776 10.6465C194.019 10.2826 194.365 9.99895 194.769 9.83145C195.173 9.66396 195.618 9.62013 196.048 9.70552C196.477 9.79091 196.871 10.0017 197.181 10.3112C197.49 10.6207 197.701 11.015 197.786 11.4443C197.872 11.8735 197.828 12.3185 197.661 12.7229C197.493 13.1273 197.209 13.4729 196.845 13.716C196.482 13.9592 196.054 14.089 195.616 14.089C195.324 14.0944 195.034 14.0409 194.763 13.9316C194.492 13.8223 194.246 13.6595 194.039 13.4529C193.833 13.2463 193.67 13.0002 193.56 12.7293C193.451 12.4583 193.398 12.1681 193.403 11.876ZM197.46 11.876C197.46 11.5113 197.352 11.1548 197.149 10.8515C196.947 10.5483 196.659 10.3119 196.322 10.1724C195.985 10.0328 195.614 9.99628 195.256 10.0674C194.899 10.1386 194.57 10.3142 194.312 10.5721C194.054 10.83 193.879 11.1586 193.807 11.5163C193.736 11.874 193.773 12.2447 193.912 12.5817C194.052 12.9186 194.288 13.2066 194.592 13.4092C194.895 13.6119 195.251 13.72 195.616 13.72C195.861 13.7287 196.104 13.6869 196.332 13.5973C196.559 13.5077 196.766 13.3722 196.939 13.1992C197.112 13.0262 197.248 12.8194 197.337 12.5918C197.427 12.3641 197.469 12.1205 197.46 11.876ZM194.878 13.13C194.804 13.13 194.804 13.13 194.804 13.056V10.769C194.804 10.695 194.804 10.695 194.878 10.695H195.763C195.866 10.6816 195.972 10.6909 196.071 10.7222C196.171 10.7535 196.262 10.806 196.339 10.8763C196.417 10.9465 196.477 11.0326 196.518 11.1288C196.559 11.2249 196.578 11.3287 196.574 11.433C196.585 11.5878 196.538 11.741 196.443 11.8635C196.348 11.986 196.211 12.0691 196.058 12.097L196.574 13.056C196.648 13.13 196.574 13.204 196.5 13.204H196.279C196.205 13.204 196.205 13.13 196.131 13.13L195.615 12.171H195.103V13.056C195.103 13.0658 195.102 13.0755 195.098 13.0846C195.094 13.0937 195.089 13.102 195.082 13.1089C195.075 13.1159 195.067 13.1213 195.058 13.1249C195.049 13.1286 195.039 13.1303 195.029 13.13H194.878ZM196.203 11.363C196.203 11.142 196.055 10.994 195.76 10.994H195.17V11.732H195.76C196.058 11.728 196.203 11.581 196.203 11.363Z" fill="#B1ACD2"/>
<path d="M63.509 28.472C63.288 28.472 63.209 28.398 63.14 28.172L60.116 17.472H60.042L57.018 28.172C56.944 28.393 56.87 28.472 56.649 28.472H53.108C52.887 28.472 52.808 28.398 52.739 28.172L47.576 9.587C47.576 9.439 47.576 9.287 47.797 9.287H52.444C52.5327 9.27805 52.6213 9.30459 52.6904 9.36081C52.7596 9.41703 52.8037 9.49836 52.813 9.587L55.247 20.727H55.321L58.276 9.587C58.35 9.366 58.424 9.287 58.645 9.287H61.522C61.743 9.287 61.822 9.361 61.891 9.587L64.991 20.725H65.065L67.418 9.587C67.4273 9.49836 67.4714 9.41703 67.5406 9.36081C67.6097 9.30459 67.6983 9.27805 67.787 9.287H72.434C72.582 9.287 72.655 9.435 72.655 9.587L67.492 28.177C67.418 28.398 67.344 28.477 67.123 28.477H63.509V28.472ZM76.344 28.472C76.2658 28.4679 76.1918 28.435 76.1364 28.3796C76.081 28.3242 76.0481 28.2502 76.044 28.172V9.587C76.0481 9.50876 76.081 9.43481 76.1364 9.37941C76.1918 9.32402 76.2658 9.2911 76.344 9.287H84.015C88.662 9.287 91.096 11.942 91.096 15.631C91.096 19.32 88.662 22.048 84.015 22.048H81.215C81.067 22.048 81.067 22.122 81.067 22.196V28.096C81.0629 28.1742 81.03 28.2482 80.9746 28.3036C80.9192 28.359 80.8452 28.3919 80.767 28.396H76.343L76.344 28.472ZM86.154 15.711C86.154 14.383 85.269 13.572 83.72 13.572H81.211C81.063 13.572 81.063 13.646 81.063 13.72V17.703C81.063 17.851 81.137 17.851 81.211 17.851H83.719C84.0235 17.8927 84.3334 17.8685 84.6277 17.7799C84.922 17.6913 85.1938 17.5405 85.4247 17.3376C85.6556 17.1347 85.8401 16.8845 85.9658 16.6041C86.0914 16.3236 86.1553 16.0193 86.153 15.712L86.154 15.711ZM97.661 23.751C97.216 22.1939 97.0414 20.5721 97.145 18.956C97.0853 17.3412 97.2591 15.7262 97.661 14.161C98.1045 12.8293 98.9558 11.6709 100.094 10.8501C101.233 10.0292 102.601 9.58749 104.005 9.58749C105.408 9.58749 106.776 10.0292 107.915 10.8501C109.053 11.6709 109.905 12.8293 110.348 14.161C110.782 15.6192 110.957 17.1424 110.864 18.661C110.864 18.882 110.716 19.03 110.421 19.03H98.398C98.25 19.03 98.177 19.178 98.177 19.33C98.1154 20.6971 98.2648 22.0654 98.62 23.387C98.9433 24.5804 99.6727 25.6237 100.682 26.3372C101.692 27.0507 102.919 27.3897 104.152 27.296C105.201 27.3296 106.244 27.113 107.193 26.6641C108.142 26.2151 108.97 25.5466 109.61 24.714C109.633 24.668 109.666 24.6282 109.708 24.598C109.749 24.5679 109.798 24.5483 109.849 24.5411C109.899 24.5338 109.951 24.539 109.999 24.5562C110.048 24.5735 110.091 24.6022 110.126 24.64L110.347 24.861C110.393 24.8837 110.433 24.9173 110.463 24.9589C110.493 25.0004 110.513 25.0487 110.52 25.0995C110.527 25.1503 110.522 25.2021 110.505 25.2505C110.488 25.2988 110.459 25.3423 110.421 25.377C109.712 26.3481 108.777 27.1313 107.696 27.6583C106.616 28.1854 105.423 28.4403 104.221 28.401C102.757 28.5086 101.302 28.1038 100.104 27.2559C98.9066 26.4081 98.041 25.1701 97.656 23.754L97.661 23.751ZM109.61 17.998C109.64 18.0013 109.67 17.9979 109.698 17.988C109.727 17.9781 109.752 17.9619 109.774 17.9407C109.795 17.9194 109.811 17.8937 109.821 17.8654C109.831 17.837 109.834 17.8068 109.831 17.777C109.855 16.7027 109.706 15.6315 109.388 14.605C109.088 13.4418 108.395 12.4178 107.428 11.7056C106.46 10.9935 105.277 10.6369 104.077 10.696C102.874 10.6222 101.683 10.9731 100.713 11.6875C99.7421 12.4019 99.0531 13.4345 98.766 14.605C98.4428 15.6303 98.2931 16.7024 98.323 17.777C98.3197 17.8068 98.3231 17.837 98.333 17.8654C98.3429 17.8937 98.3591 17.9194 98.3803 17.9407C98.4016 17.9619 98.4273 17.9781 98.4556 17.988C98.484 17.9979 98.5142 18.0013 98.544 17.998H109.61ZM127.976 28.03C127.927 28.0331 127.877 28.0256 127.831 28.0082C127.785 27.9907 127.743 27.9636 127.708 27.9287C127.673 27.8939 127.646 27.8519 127.629 27.8058C127.611 27.7596 127.604 27.7103 127.607 27.661V16.887C127.607 12.609 125.837 10.765 122.37 10.765C121.629 10.7347 120.89 10.8595 120.2 11.1315C119.51 11.4034 118.885 11.8166 118.364 12.3444C117.843 12.8722 117.438 13.5031 117.176 14.1965C116.913 14.8899 116.798 15.6306 116.838 16.371V27.735C116.841 27.7843 116.834 27.8336 116.816 27.8798C116.799 27.9259 116.772 27.9679 116.737 28.0027C116.702 28.0376 116.66 28.0647 116.614 28.0822C116.568 28.0996 116.518 28.1071 116.469 28.104H116.1C116.051 28.1071 116.001 28.0996 115.955 28.0822C115.909 28.0647 115.867 28.0376 115.832 28.0027C115.797 27.9679 115.77 27.9259 115.753 27.8798C115.735 27.8336 115.728 27.7843 115.731 27.735V10.475C115.728 10.4257 115.735 10.3764 115.753 10.3302C115.77 10.2841 115.797 10.2421 115.832 10.2073C115.867 10.1724 115.909 10.1453 115.955 10.1278C116.001 10.1104 116.051 10.1029 116.1 10.106H116.469C116.518 10.1029 116.568 10.1104 116.614 10.1278C116.66 10.1453 116.702 10.1724 116.737 10.2073C116.772 10.2421 116.799 10.2841 116.816 10.3302C116.834 10.3764 116.841 10.4257 116.838 10.475V12.987H116.912C117.395 11.9426 118.18 11.0676 119.167 10.4757C120.154 9.88381 121.295 9.60238 122.444 9.668C126.501 9.668 128.788 11.955 128.788 16.602V27.661C128.791 27.7103 128.784 27.7596 128.766 27.8058C128.749 27.8519 128.722 27.8939 128.687 27.9287C128.652 27.9636 128.61 27.9907 128.564 28.0082C128.518 28.0256 128.468 28.0331 128.419 28.03H127.976ZM134.176 32.677C134.028 32.456 134.028 32.234 134.25 32.161L134.55 31.94C134.771 31.792 134.919 31.866 135.066 32.088C135.636 32.8018 136.369 33.3686 137.203 33.7407C138.038 34.1129 138.949 34.2797 139.861 34.227C143.254 34.227 145.467 32.527 145.467 28.105V25.079H145.393C144.508 27.071 142.959 28.472 139.787 28.472C138.455 28.5356 137.14 28.1478 136.056 27.3714C134.972 26.5951 134.181 25.4755 133.812 24.194C133.339 22.541 133.139 20.8215 133.222 19.104C133.177 17.388 133.375 15.6742 133.812 14.014C134.181 12.7346 134.97 11.6167 136.052 10.8407C137.134 10.0647 138.446 9.67592 139.776 9.737C142.948 9.737 144.497 11.137 145.382 13.13H145.456V10.548C145.453 10.4987 145.46 10.4494 145.478 10.4032C145.495 10.3571 145.522 10.3151 145.557 10.2803C145.592 10.2454 145.634 10.2183 145.68 10.2008C145.726 10.1834 145.776 10.1759 145.825 10.179H146.194C146.243 10.1759 146.293 10.1834 146.339 10.2008C146.385 10.2183 146.427 10.2454 146.462 10.2803C146.497 10.3151 146.524 10.3571 146.541 10.4032C146.559 10.4494 146.566 10.4987 146.563 10.548V28.177C146.563 33.119 143.908 35.332 139.777 35.332C138.701 35.3539 137.636 35.1254 136.664 34.6647C135.692 34.2039 134.84 33.5234 134.176 32.677ZM144.945 23.752C145.37 22.2164 145.544 20.6222 145.461 19.031C145.539 17.44 145.365 15.8466 144.945 14.31C144.654 13.2217 143.995 12.2674 143.081 11.6088C142.167 10.9502 141.054 10.6277 139.929 10.696C138.822 10.6218 137.725 10.9343 136.823 11.5803C135.922 12.2262 135.272 13.1654 134.987 14.237C134.546 15.7704 134.347 17.3632 134.397 18.958C134.347 20.5528 134.546 22.1456 134.987 23.679C135.282 24.7452 135.933 25.6782 136.832 26.3225C137.732 26.9668 138.825 27.2836 139.929 27.22C141.045 27.3605 142.173 27.0843 143.098 26.4444C144.023 25.8044 144.679 24.8458 144.941 23.752H144.945ZM152.764 4.5C152.715 4.50307 152.665 4.49564 152.619 4.47818C152.573 4.46072 152.531 4.43365 152.496 4.39875C152.461 4.36385 152.434 4.32193 152.417 4.27577C152.399 4.2296 152.392 4.18026 152.395 4.131V2.656C152.392 2.60674 152.399 2.5574 152.417 2.51123C152.434 2.46507 152.461 2.42315 152.496 2.38825C152.531 2.35335 152.573 2.32628 152.619 2.30882C152.665 2.29136 152.715 2.28393 152.764 2.287H153.649C153.698 2.28393 153.748 2.29136 153.794 2.30882C153.84 2.32628 153.882 2.35335 153.917 2.38825C153.952 2.42315 153.979 2.46507 153.996 2.51123C154.014 2.5574 154.021 2.60674 154.018 2.656V4.205C154.021 4.25426 154.014 4.3036 153.996 4.34977C153.979 4.39593 153.952 4.43785 153.917 4.47275C153.882 4.50765 153.84 4.53472 153.794 4.55218C153.748 4.56964 153.698 4.57707 153.649 4.574H152.764V4.5ZM153.064 28.03C153.015 28.0331 152.965 28.0256 152.919 28.0082C152.873 27.9907 152.831 27.9636 152.796 27.9287C152.761 27.8939 152.734 27.8519 152.717 27.8058C152.699 27.7596 152.692 27.7103 152.695 27.661V10.475C152.692 10.4257 152.699 10.3764 152.717 10.3302C152.734 10.2841 152.761 10.2421 152.796 10.2073C152.831 10.1724 152.873 10.1453 152.919 10.1278C152.965 10.1104 153.015 10.1029 153.064 10.106H153.433C153.482 10.1029 153.532 10.1104 153.578 10.1278C153.624 10.1453 153.666 10.1724 153.701 10.2073C153.736 10.2421 153.763 10.2841 153.78 10.3302C153.798 10.3764 153.805 10.4257 153.802 10.475V27.661C153.805 27.7103 153.798 27.7596 153.78 27.8058C153.763 27.8519 153.736 27.8939 153.701 27.9287C153.666 27.9636 153.624 27.9907 153.578 28.0082C153.532 28.0256 153.482 28.0331 153.433 28.03H153.064ZM172.164 28.03C172.115 28.0331 172.065 28.0256 172.019 28.0082C171.973 27.9907 171.931 27.9636 171.896 27.9287C171.861 27.8939 171.834 27.8519 171.817 27.8058C171.799 27.7596 171.792 27.7103 171.795 27.661V16.887C171.795 12.609 170.025 10.765 166.558 10.765C165.817 10.7347 165.078 10.8595 164.388 11.1315C163.698 11.4034 163.073 11.8166 162.552 12.3444C162.031 12.8722 161.626 13.5031 161.364 14.1965C161.101 14.8899 160.986 15.6306 161.026 16.371V27.735C161.029 27.7843 161.022 27.8336 161.004 27.8798C160.987 27.9259 160.96 27.9679 160.925 28.0027C160.89 28.0376 160.848 28.0647 160.802 28.0822C160.756 28.0996 160.706 28.1071 160.657 28.104H160.288C160.239 28.1071 160.189 28.0996 160.143 28.0822C160.097 28.0647 160.055 28.0376 160.02 28.0027C159.985 27.9679 159.958 27.9259 159.941 27.8798C159.923 27.8336 159.916 27.7843 159.919 27.735V10.475C159.916 10.4257 159.923 10.3764 159.941 10.3302C159.958 10.2841 159.985 10.2421 160.02 10.2073C160.055 10.1724 160.097 10.1453 160.143 10.1278C160.189 10.1104 160.239 10.1029 160.288 10.106H160.657C160.706 10.1029 160.756 10.1104 160.802 10.1278C160.848 10.1453 160.89 10.1724 160.925 10.2073C160.96 10.2421 160.987 10.2841 161.004 10.3302C161.022 10.3764 161.029 10.4257 161.026 10.475V12.987H161.1C161.583 11.9426 162.368 11.0676 163.355 10.4757C164.342 9.88381 165.483 9.60238 166.632 9.668C170.689 9.668 172.976 11.955 172.976 16.602V27.661C172.979 27.7103 172.972 27.7596 172.954 27.8058C172.937 27.8519 172.91 27.8939 172.875 27.9287C172.84 27.9636 172.798 27.9907 172.752 28.0082C172.706 28.0256 172.656 28.0331 172.607 28.03H172.164ZM177.991 23.752C177.546 22.195 177.371 20.5731 177.475 18.957C177.415 17.3422 177.589 15.7272 177.991 14.162C178.434 12.8303 179.286 11.6719 180.424 10.8511C181.563 10.0302 182.931 9.58849 184.335 9.58849C185.738 9.58849 187.106 10.0302 188.245 10.8511C189.383 11.6719 190.235 12.8303 190.678 14.162C191.112 15.6202 191.287 17.1434 191.194 18.662C191.194 18.883 191.046 19.031 190.751 19.031H178.724C178.576 19.031 178.503 19.179 178.503 19.331C178.441 20.6981 178.591 22.0664 178.946 23.388C179.269 24.5814 179.999 25.6247 181.008 26.3382C182.018 27.0517 183.245 27.3908 184.478 27.297C185.527 27.3306 186.57 27.114 187.519 26.6651C188.468 26.2161 189.296 25.5476 189.936 24.715C189.959 24.669 189.992 24.6292 190.034 24.599C190.075 24.5689 190.124 24.5493 190.175 24.5421C190.225 24.5348 190.277 24.54 190.325 24.5572C190.374 24.5745 190.417 24.6032 190.452 24.641L190.673 24.862C190.719 24.8847 190.759 24.9183 190.789 24.9599C190.819 25.0014 190.839 25.0497 190.846 25.1005C190.853 25.1513 190.848 25.2031 190.831 25.2515C190.814 25.2998 190.785 25.3433 190.747 25.378C190.038 26.3491 189.103 27.1323 188.022 27.6593C186.942 28.1864 185.749 28.4413 184.547 28.402C181.228 28.402 178.941 26.853 177.982 23.755L177.991 23.752ZM189.867 17.999C189.897 18.0023 189.927 17.9989 189.955 17.989C189.984 17.9791 190.009 17.9629 190.031 17.9417C190.052 17.9204 190.068 17.8947 190.078 17.8664C190.088 17.838 190.091 17.8078 190.088 17.778C190.112 16.7037 189.963 15.6325 189.645 14.606C189.345 13.4428 188.652 12.4188 187.685 11.7066C186.717 10.9945 185.534 10.6379 184.334 10.697C183.131 10.6232 181.94 10.9741 180.97 11.6885C179.999 12.4029 179.31 13.4355 179.023 14.606C178.7 15.6313 178.55 16.7034 178.58 17.778C178.577 17.8078 178.58 17.838 178.59 17.8664C178.6 17.8947 178.616 17.9204 178.637 17.9417C178.659 17.9629 178.684 17.9791 178.713 17.989C178.741 17.9989 178.771 18.0023 178.801 17.999H189.867Z" fill="#B1ACD2"/>
<path d="M12.761 37.618H24.861V28.472L21.911 25.522H15.641L12.764 28.472L12.761 37.618ZM28.4 12.761L25.523 15.638V21.982L28.4 24.858H37.62V12.758L28.4 12.761ZM24.858 0H12.758V9.22L15.637 12.1H21.907L24.857 9.223L24.858 0ZM37.618 37.618V28.472L34.741 25.522H25.521V37.622L37.618 37.618ZM2.877 0L0 2.877V12.1H12.1V0H2.877ZM25.522 0V9.22L28.4 12.1H37.62V0H25.522ZM18.809 20.58C18.4728 20.58 18.1441 20.4803 17.8645 20.2935C17.585 20.1067 17.3671 19.8412 17.2384 19.5306C17.1097 19.2199 17.0761 18.8781 17.1417 18.5483C17.2073 18.2186 17.3692 17.9157 17.6069 17.6779C17.8447 17.4402 18.1476 17.2783 18.4773 17.2127C18.8071 17.1471 19.1489 17.1807 19.4596 17.3094C19.7702 17.4381 20.0357 17.656 20.2225 17.9355C20.4093 18.2151 20.509 18.5438 20.509 18.88C20.5048 19.3296 20.3244 19.7596 20.0065 20.0775C19.6886 20.3954 19.2586 20.5758 18.809 20.58ZM12.1 12.761H0V24.861H9.146L12.096 21.984L12.1 12.761ZM12.1 28.472L9.15 25.522H0V37.622H9.146L12.096 34.745L12.1 28.472Z" fill="#B1ACD2"/>
</svg>
