<svg width="186" height="41" viewBox="0 0 186 41" fill="none" xmlns="http://www.w3.org/2000/svg">
<path d="M185.706 35.3491C185.302 35.4626 184.961 35.5245 184.619 35.5245C183.408 35.5245 182.839 35.0086 182.839 33.5231V22.3091C182.839 16.4183 178.13 13.5504 172.561 13.5504C168.307 13.5504 166.02 14.0662 161.476 15.8922L160.462 21.8345L166.372 22.4638L167.21 19.5546C168.421 18.9252 169.622 18.8118 171.174 18.8118C175.366 18.8118 175.428 21.9583 175.428 24.589V25.4453C174.103 25.2699 172.613 25.2183 171.174 25.2183C165.265 25.2183 159.117 26.7039 159.117 33.0588C159.117 38.4337 163.36 40.4454 167.097 40.4454C171.288 40.4454 173.928 37.9282 175.418 35.2975C175.759 38.444 177.654 40.4454 181.1 40.4454C182.704 40.4454 184.371 39.9915 185.747 39.2384L185.706 35.3491ZM169.808 35.184C167.573 35.184 166.765 33.8635 166.765 32.2026C166.765 29.3965 169.063 28.6537 171.702 28.6537C172.903 28.6537 174.228 28.8291 175.439 28.9941C175.263 33.2961 172.447 35.184 169.808 35.184ZM159.862 0.5L148.663 39.878H141.366L152.565 0.5H159.862ZM144.823 0.5L133.625 39.878H126.338L137.537 0.5H144.823ZM113.732 14.0662H121.484V23.3304H113.732V14.0662ZM113.732 30.6035H121.484V39.878H113.732V30.6035ZM102.45 30.2631L108.309 30.8305L106.704 39.878H84.0792L83.334 35.9887L97.5756 19.6784H89.4819L88.3331 23.6811L82.9925 23.1034L83.9136 14.0559H106.653L107.232 17.9452L92.8664 34.2659H101.25L102.45 30.2631ZM65.3457 13.5504C56.0411 13.5504 51.4457 19.7918 51.4457 27.3435C51.4457 35.5864 56.9622 40.4454 64.9421 40.4454C73.2117 40.4454 79.1837 35.2356 79.1837 26.9927C79.1837 19.7815 74.64 13.5504 65.3457 13.5504ZM65.1698 34.7817C61.154 34.7817 59.084 31.3463 59.084 26.8793C59.084 22.0099 61.4334 19.2141 65.2319 19.2141C68.7302 19.2141 71.5454 21.556 71.5454 26.7658C71.5454 31.6867 69.02 34.7817 65.1698 34.7817ZM44.7803 34.2659H48.2268V39.878H37.3697V25.3421C37.3697 20.8751 35.8793 19.1625 32.9502 19.1625C29.3898 19.1625 27.9512 21.6798 27.9512 25.2905V34.2659H31.3977V39.878H20.5509V25.3421C20.5509 20.8751 19.0605 19.1625 16.1315 19.1625C12.5711 19.1625 11.1324 21.6798 11.1324 25.2905V34.2659H16.0694V39.878H0.285645V34.2659H3.73219V19.668H0.285645V14.0559H11.1324V17.9452C12.6849 15.201 15.3863 13.54 18.9984 13.54C22.7348 13.54 26.171 15.3145 27.444 19.0903C28.8827 15.6549 31.8117 13.54 35.8896 13.54C40.5368 13.54 44.7906 16.3461 44.7906 22.4638V34.2659H44.7803Z" fill="#B1ACD2"/>
</svg>
