<svg width="242" height="48" viewBox="0 0 242 48" fill="none" xmlns="http://www.w3.org/2000/svg">
<path d="M28.072 9.01981L14.036 18.0396L28.072 27.0594L14.036 36.0792L0 27.0107L14.036 17.9909L0 9.01981L14.036 0L28.072 9.01981ZM13.9634 38.9802L27.9994 29.9604L42.0354 38.9802L27.9994 48L13.9634 38.9802ZM28.072 27.0107L42.108 17.9909L28.072 9.01981L42.0354 0L56.0714 9.01981L42.0354 18.0396L56.0714 27.0594L42.0354 36.0792L28.072 27.0107Z" fill="#B1ACD2"/>
<path d="M67.0824 9.01981H78.4322C85.668 9.01981 91.6454 13.2372 91.6454 22.8664V24.8898C91.6454 34.5922 86.0552 38.9558 78.65 38.9558H67.0824V9.01981ZM73.4228 14.4561V33.4952H78.287C82.401 33.4952 85.1598 30.7892 85.1598 24.7679V23.1833C85.1598 17.162 82.2558 14.4561 78.0692 14.4561H73.4228ZM95.0092 14.7486H100.091L100.914 20.3799C101.882 16.5526 104.35 14.5048 108.827 14.5048H110.4V20.965H107.787C102.632 20.965 101.374 22.7689 101.374 27.8883V39.029H95.106V14.7486H95.0092ZM111.659 27.3763V26.6938C111.659 18.5759 116.813 14.1392 123.831 14.1392C130.995 14.1392 136.004 18.5759 136.004 26.6938V27.3763C136.004 35.3479 131.14 39.6384 123.831 39.6384C116.063 39.5653 111.659 35.3723 111.659 27.3763ZM129.591 27.3032V26.6938C129.591 22.1839 127.34 19.4779 123.759 19.4779C120.25 19.4779 117.927 21.9645 117.927 26.6938V27.3032C117.927 31.6668 120.177 34.1534 123.759 34.1534C127.34 34.0802 129.591 31.6668 129.591 27.3032ZM139.295 14.7486H144.522L145.127 19.3316C146.386 16.26 149.072 14.1392 153.041 14.1392C159.163 14.1392 163.205 18.5759 163.205 26.7913V27.4738C163.205 35.4454 158.728 39.6628 153.041 39.6628C149.241 39.6628 146.628 37.9319 145.345 35.1529V47.4149H139.223L139.295 14.7486ZM156.84 27.3032V26.7669C156.84 21.9401 154.372 19.551 151.081 19.551C147.572 19.551 145.248 22.257 145.248 26.7669V27.2301C145.248 31.5206 147.499 34.2265 151.008 34.2265C154.614 34.1534 156.84 31.8375 156.84 27.3032ZM172.473 34.5434L171.941 38.9802H166.569V6.63078H172.691V19.0391C174.046 15.87 176.733 14.1392 180.532 14.1392C186.292 14.2123 190.551 18.2103 190.551 26.255V27.0107C190.551 35.0554 186.509 39.6628 180.387 39.6628C176.345 39.5653 173.732 37.6882 172.473 34.5434ZM184.114 27.0107V26.4012C184.114 21.9645 181.718 19.4779 178.354 19.4779C174.918 19.4779 172.522 22.257 172.522 26.4744V27.0107C172.522 31.5206 174.845 34.1534 178.281 34.1534C181.96 34.1534 184.114 31.8375 184.114 27.0107ZM193.237 27.3763V26.6938C193.237 18.5759 198.392 14.1392 205.41 14.1392C212.573 14.1392 217.582 18.5759 217.582 26.6938V27.3763C217.582 35.3479 212.645 39.6384 205.41 39.6384C197.641 39.5653 193.237 35.3723 193.237 27.3763ZM211.218 27.3032V26.6938C211.218 22.1839 208.967 19.4779 205.385 19.4779C201.876 19.4779 199.553 21.9645 199.553 26.6938V27.3032C199.553 31.6668 201.804 34.1534 205.385 34.1534C208.991 34.0802 211.218 31.6668 211.218 27.3032ZM225.786 26.4012L217.34 14.7486H224.576L229.44 22.0376L234.377 14.7486H241.54L232.973 26.3281L242 38.9802H234.909L229.392 30.9355L224.019 38.9802H216.614L225.786 26.4012Z" fill="#B1ACD2"/>
</svg>
