<svg width="231" height="52" viewBox="0 0 231 52" fill="none" xmlns="http://www.w3.org/2000/svg">
<path d="M133.976 20.468H124.882V21.4251C127.727 21.4251 128.184 22.0299 128.184 25.6085V32.0599C128.184 35.6381 127.727 36.2934 124.882 36.2934C122.699 35.9913 121.225 34.8318 119.193 32.6142L116.856 30.0945C120.006 29.5394 121.682 27.5743 121.682 25.3564C121.682 22.585 119.295 20.468 114.824 20.468H105.884V21.4251C108.728 21.4251 109.185 22.0299 109.185 25.6085V32.0599C109.185 35.6381 108.728 36.2934 105.884 36.2934V37.2509H115.992V36.2934C113.148 36.2934 112.691 35.6381 112.691 32.0599V30.246H113.554L119.193 37.2509H133.976C141.24 37.2509 144.39 33.421 144.39 28.834C144.39 24.2478 141.24 20.468 133.976 20.468ZM112.691 28.6825V21.9802H114.774C117.059 21.9802 118.076 23.5425 118.076 25.3568C118.076 27.1211 117.059 28.6829 114.774 28.6829L112.691 28.6825ZM134.128 35.6886H133.773C131.944 35.6886 131.69 35.2354 131.69 32.9168V21.9802C131.69 21.9802 133.925 21.9802 134.128 21.9802C139.411 21.9802 140.376 25.8101 140.376 28.7839C140.376 31.8579 139.411 35.6886 134.128 35.6886Z" fill="#B1ACD2"/>
<path d="M77.5895 30.5482L81.0947 20.266C82.1111 17.2926 81.6538 16.4361 78.4027 16.4361V15.4277H87.9528V16.4361C84.7526 16.4361 83.9907 17.192 82.7207 20.8712L76.929 38.1078H76.2689L71.0868 22.3325L65.8042 38.1078H65.1437L59.5052 20.8712C58.286 17.192 57.4732 16.4361 54.5267 16.4361V15.4277H65.8042V16.4361C62.8068 16.4361 61.9936 17.1415 63.0609 20.266L66.4643 30.5482L71.595 15.4277H72.5605L77.5895 30.5482Z" fill="#B1ACD2"/>
<path d="M94.8606 37.9058C89.2729 37.9058 84.7009 33.8238 84.7009 28.8336C84.7009 23.8947 89.2734 19.8119 94.8606 19.8119C100.449 19.8119 105.02 23.8947 105.02 28.8336C105.02 33.8238 100.449 37.9058 94.8606 37.9058ZM94.8606 21.3754C90.1875 21.3754 88.5615 25.558 88.5615 28.834C88.5615 32.161 90.1875 36.2934 94.8606 36.2934C99.5854 36.2934 101.211 32.161 101.211 28.834C101.211 25.558 99.5854 21.3754 94.8606 21.3754Z" fill="#B1ACD2"/>
<path d="M156.936 36.2429V37.2509H145.303V36.2429C148.707 36.2429 149.317 35.3865 149.317 30.3457V22.2824C149.317 17.2417 148.707 16.4357 145.303 16.4357V15.4273H155.818C161.051 15.4273 163.947 18.0985 163.947 21.6776C163.947 25.1552 161.051 27.8765 155.818 27.8765H152.923V30.3453C152.923 35.3865 153.532 36.2429 156.936 36.2429ZM155.818 17.2417H152.923V26.0117H155.818C158.664 26.0117 159.984 24.0462 159.984 21.6776C159.984 19.2585 158.664 17.2417 155.818 17.2417Z" fill="#B1ACD2"/>
<path d="M198.845 32.5136L198.591 33.4206C198.134 35.0839 197.575 35.6886 193.968 35.6886H193.257C190.616 35.6886 190.158 35.0839 190.158 31.5057V29.1875C194.121 29.1875 194.426 29.5398 194.426 32.1609H195.391V24.651H194.426C194.426 27.2717 194.121 27.6244 190.158 27.6244V21.9802H192.952C196.559 21.9802 197.117 22.585 197.575 24.2482L197.829 25.2053H198.642L198.287 20.468H183.351V21.4251C186.195 21.4251 186.653 22.0299 186.653 25.6085V32.0599C186.653 35.3334 186.265 36.158 184.022 36.2756C181.89 35.9526 180.427 34.7991 178.424 32.6142L176.087 30.0945C179.237 29.5394 180.914 27.5743 180.914 25.3564C180.914 22.585 178.526 20.468 174.056 20.468H165.115V21.4251C167.96 21.4251 168.417 22.0299 168.417 25.6085V32.0599C168.417 35.6381 167.96 36.2934 165.115 36.2934V37.2509H175.225V36.2934C172.38 36.2934 171.923 35.6381 171.923 32.0599V30.246H172.786L178.425 37.2509H199.303L199.608 32.5141L198.845 32.5136ZM171.922 28.6825V21.9802H174.005C176.291 21.9802 177.307 23.5425 177.307 25.3568C177.307 27.1211 176.291 28.6829 174.005 28.6829L171.922 28.6825Z" fill="#B1ACD2"/>
<path d="M209.157 37.9058C207.125 37.9058 205.347 36.8477 204.585 36.192C204.331 36.4445 203.874 37.2004 203.773 37.9058H202.807V30.9514H203.823C204.23 34.2775 206.566 36.2429 209.564 36.2429C211.189 36.2429 212.51 35.336 212.51 33.8242C212.51 32.5141 211.342 31.5057 209.259 30.5482L206.363 29.1875C204.331 28.2292 202.807 26.5659 202.807 24.3488C202.807 21.9297 205.093 19.8637 208.243 19.8637C209.92 19.8637 211.341 20.4684 212.206 21.1738C212.459 20.9722 212.713 20.4175 212.866 19.8123H213.831V25.76H212.764C212.408 23.3909 211.088 21.4255 208.396 21.4255C206.973 21.4255 205.652 22.2319 205.652 23.4924C205.652 24.8025 206.719 25.5079 209.158 26.6169L211.951 27.9775C214.39 29.1366 215.354 31.0023 215.354 32.5141C215.354 35.6886 212.561 37.9058 209.157 37.9058Z" fill="#B1ACD2"/>
<path d="M224.803 37.9058C222.771 37.9058 220.993 36.8477 220.231 36.192C219.977 36.4445 219.52 37.2004 219.419 37.9058H218.453V30.9514H219.469C219.876 34.2775 222.212 36.2429 225.21 36.2429C226.835 36.2429 228.156 35.336 228.156 33.8242C228.156 32.5141 226.988 31.5057 224.905 30.5482L222.009 29.1875C219.977 28.2292 218.453 26.5659 218.453 24.3488C218.453 21.9297 220.739 19.8637 223.889 19.8637C225.565 19.8637 226.987 20.4684 227.851 21.1738C228.105 20.9722 228.359 20.4175 228.511 19.8123H229.476V25.76H228.41C228.054 23.3909 226.733 21.4255 224.041 21.4255C222.619 21.4255 221.298 22.2319 221.298 23.4924C221.298 24.8025 222.364 25.5079 224.803 26.6169L227.597 27.9775C230.035 29.1366 231 31.0023 231 32.5141C231 35.6886 228.206 37.9058 224.803 37.9058Z" fill="#B1ACD2"/>
<path d="M3.72509 25.9994C3.72509 34.8279 8.89649 42.4576 16.3954 46.0731L5.67148 16.9221C4.42408 19.696 3.72509 22.7658 3.72509 25.9994Z" fill="#B1ACD2"/>
<path d="M41.3832 24.8738C41.3832 22.1173 40.3852 20.2083 39.5292 18.7224C38.3896 16.8852 37.3215 15.3293 37.3215 13.492C37.3215 11.4417 38.8889 9.5331 41.0966 9.5331C41.1963 9.5331 41.2908 9.54541 41.3879 9.55093C37.3882 5.91543 32.0594 3.69576 26.2065 3.69576C18.3525 3.69576 11.4426 7.69371 7.4228 13.7492C7.95025 13.7649 8.44733 13.7759 8.86954 13.7759C11.221 13.7759 14.861 13.4928 14.861 13.4928C16.0729 13.422 16.2158 15.1879 15.0052 15.3301C15.0052 15.3301 13.7873 15.4723 12.4321 15.5427L20.6189 39.7023L25.5388 25.0631L22.0361 15.5419C20.8255 15.4714 19.6786 15.3293 19.6786 15.3293C18.4672 15.2588 18.6092 13.4211 19.8207 13.492C19.8207 13.492 23.5333 13.7751 25.7424 13.7751C28.0935 13.7751 31.7338 13.492 31.7338 13.492C32.9466 13.4211 33.089 15.1871 31.878 15.3293C31.878 15.3293 30.6576 15.4714 29.3049 15.5419L37.4293 39.5185L39.6717 32.0841C40.6436 28.9991 41.3832 26.7833 41.3832 24.8738Z" fill="#B1ACD2"/>
<path d="M26.6009 27.9504L19.8557 47.3964C21.8697 47.9838 23.9996 48.3051 26.2065 48.3051C28.8245 48.3051 31.3352 47.8561 33.6721 47.0408C33.6118 46.9453 33.557 46.8438 33.5121 46.7335L26.6009 27.9504Z" fill="#B1ACD2"/>
<path d="M45.9331 15.2983C46.0297 16.0087 46.0845 16.7714 46.0845 17.5918C46.0845 19.8552 45.6584 22.3995 44.3751 25.5809L37.508 45.279C44.1916 41.4122 48.6871 34.2283 48.6871 25.9998C48.6875 22.122 47.6891 18.4754 45.9331 15.2983Z" fill="#B1ACD2"/>
<path d="M26.2065 0C11.7566 0 0 11.6632 0 25.9994C0 40.3372 11.7566 52 26.2065 52C40.656 52 52.4143 40.3372 52.4143 25.9994C52.4139 11.6632 40.656 0 26.2065 0ZM26.2065 50.8083C12.4192 50.8083 1.20163 39.6789 1.20163 25.9994C1.20163 12.3206 12.4188 1.19217 26.2065 1.19217C39.9934 1.19217 51.2101 12.3206 51.2101 25.9994C51.2101 39.6789 39.9934 50.8083 26.2065 50.8083Z" fill="#B1ACD2"/>
</svg>
