<svg width="52" height="53" viewBox="0 0 52 53" fill="none" xmlns="http://www.w3.org/2000/svg">
<path d="M26 52.0039C27.1898 52.0039 28.3609 51.924 29.5082 51.7692C28.3609 51.9225 27.1899 52.0039 26 52.0039Z" fill="#B1ACD2"/>
<path d="M30.0622 51.6884V33.5212H36.1207L37.2724 26.0039H30.0622V21.1264C30.0622 19.0715 31.0676 17.0642 34.2998 17.0642H37.5795V10.6657C37.5795 10.6657 34.6033 10.1575 31.7587 10.1575C25.8208 10.1575 21.9378 13.7553 21.9378 20.2744V26.0039H15.3346V33.5212H21.9378V51.6884C9.50793 49.7382 0 38.9814 0 26.0039C0 11.6445 11.6406 0.00390625 26 0.00390625C40.3594 0.00390625 52 11.6445 52 26.0039C52 38.9814 42.4921 49.7383 30.0622 51.6884Z" fill="#B1ACD2"/>
</svg>
