<svg width="448" height="512" viewBox="0 0 448 512" fill="none" xmlns="http://www.w3.org/2000/svg">
<g clip-path="url(#clip0_53_1056)">
<path d="M446.3 433.2L384 295.6C388.4 284.2 392.3 281.4 406.3 267.4C417.6 256.1 422 239.6 417.9 224.2C409.6 193.3 409.6 197.6 417.9 166.6C422 151.2 417.6 134.7 406.3 123.4C383.6 100.7 385.8 104.5 377.5 73.4996C373.4 58.0996 361.3 45.9996 345.9 41.8996C314.9 33.5996 318.7 35.7996 296 13.0996C284.7 1.79965 268.2 -2.60035 252.8 1.49965C221.9 9.79965 226.1 9.79965 195.2 1.49965C179.8 -2.60035 163.3 1.79965 152 13.0996C129.3 35.7996 133.1 33.5996 102.1 41.8996C86.6999 45.9996 74.5999 58.0996 70.4999 73.4996C62.1999 104.5 64.3999 100.7 41.6999 123.4C30.3999 134.7 25.9999 151.2 30.0999 166.6C38.3999 197.5 38.3999 193.2 30.0999 224.2C25.9999 239.6 30.3999 256.1 41.6999 267.4C56.7999 282.5 59.6999 284.5 63.9999 295.6L1.69987 433.2C-4.30013 446.3 6.49987 460.6 22.1999 460.6C22.4999 460.6 22.7999 460.6 23.0999 460.6L95.9999 458.1L146.1 505.7C150.6 509.9 156.4 511.9 162.1 511.9C170.6 511.9 179 507.5 182.7 499.5L224.1 408L265.6 499.5C269.2 507.5 277.6 511.9 286.1 511.9C291.9 511.9 297.7 509.9 302.1 505.7L352.2 458.1L425.1 460.6C425.4 460.6 425.7 460.6 426 460.6C441.5 460.6 452.3 446.4 446.3 433.2ZM153.7 446.9L114.3 409.5L64.2999 411.2L93.9999 345.6C96.5999 346.9 99.1999 348.2 102 348.9C127.1 355.6 128.8 354.6 145.1 370.9C153.7 379.5 165.2 384 176.7 384C178.6 384 180.6 383.5 182.5 383.2L153.7 446.9ZM177.3 335.1C155.3 313 143.6 310.3 116.4 303C105.1 260.7 99.3999 257.1 76.9999 234.8C88.4999 191.9 84.8999 185.4 76.9999 156C108 125 108.2 118.3 116.4 87.7997C145.5 79.9997 153.5 79.5996 184.6 48.3996C227.2 59.7996 233.8 56.2996 263.4 48.3996C284.7 69.6996 289 76.3997 331.6 87.7997C342.9 130.1 348.6 133.7 371 156.1C359.7 198.4 362.8 204.4 371 234.9C349.7 256.2 343 260.6 331.6 303.1C305.3 310.1 293.3 312.5 270.7 335.2C239.6 317 203.7 319.7 177.3 335.1ZM353.8 410.1L333.7 409.4L294.3 446.8L265.4 383.1C267.3 383.4 269.3 383.9 271.2 383.9C282.7 383.9 294.2 379.4 302.8 370.8C319.2 354.4 320.6 355.6 345.9 348.8C348.8 348 351.3 346.7 353.9 345.5L383.6 411.1L353.8 410.1ZM320 192C320 139 277 95.9996 224 95.9996C171 95.9996 128 139 128 192C128 245 171 288 224 288C277 288 320 245 320 192ZM224 240C197.5 240 176 218.5 176 192C176 165.5 197.5 144 224 144C250.5 144 272 165.5 272 192C272 218.5 250.5 240 224 240Z" fill="white"/>
</g>
<defs>
<clipPath id="clip0_53_1056">
<rect width="448" height="512" fill="white"/>
</clipPath>
</defs>
</svg>
