<svg width="512" height="512" viewBox="0 0 512 512" fill="none" xmlns="http://www.w3.org/2000/svg">
<g clip-path="url(#clip0_53_1062)">
<path d="M502.7 368.1L379.9 245.3L435.9 189.3L493.3 131.9C518.3 106.9 518.3 66.4 493.3 41.4L470.6 18.7C458.1 6.2 441.7 0 425.3 0C408.9 0 392.5 6.2 380.1 18.7L322.7 76.1L266.7 132.1L230.6 96L143.9 9.3C137.7 3.1 129.6 0 121.4 0C113.2 0 105.2 3.1 99.0005 9.3L9.30047 99C-3.09953 111.4 -3.09953 131.5 9.30047 143.9L109.5 244L132.1 266.6L19.1005 379.6L0.300469 487.1C-1.99953 500.3 8.30047 512 21.2005 512C22.4005 512 23.7005 511.9 24.9005 511.7L132.3 492.9L245.2 379.9L368 502.7C374.2 508.9 382.3 512 390.4 512C398.5 512 406.6 508.9 412.8 502.7L502.5 413C515.1 400.6 515.1 380.5 502.7 368.1ZM414 52.7C418.1 48.6 422.8 48 425.3 48C427.8 48 432.5 48.6 436.6 52.7L459.3 75.4C463.4 79.5 464 84.2 464 86.7C464 89.2 463.4 93.9 459.3 98L407.6 149.7L362.3 104.4L414 52.7ZM143.4 210.1L54.7005 121.4L121.4 54.7L160.3 93.6L138.3 115.6C132.1 121.8 132.1 132 138.3 138.2L149.6 149.5C155.8 155.7 166 155.7 172.2 149.5L194.2 127.5L196.5 129.8L232.6 165.9L165.9 232.6L143.4 210.1ZM109.1 448.2L54.1005 457.8L63.7005 402.9L328.3 138.3L373.6 183.6L109.1 448.2ZM390.6 457.2L279.2 345.9L345.9 279.2L384.3 317.6L362.3 339.6C356.1 345.8 356.1 356 362.3 362.2L373.6 373.5C379.8 379.7 390 379.7 396.2 373.5L418.2 351.5L457.1 390.4L390.6 457.2Z" fill="white"/>
</g>
<defs>
<clipPath id="clip0_53_1062">
<rect width="512" height="512" fill="white"/>
</clipPath>
</defs>
</svg>
