<svg width="512" height="512" viewBox="0 0 512 512" fill="none" xmlns="http://www.w3.org/2000/svg">
<path d="M505.2 274.5L456.8 177.7C451.4 166.9 440.3 160 428.2 160H144C144 126.2 165.2 97.3 196 85.6C204.9 110.2 228.3 128 256 128H288C323.4 128 352 99.3 352 64C352 28.7 323.4 0 288 0H256C231.4 0 210.2 14.1 199.5 34.5C140.6 45.9 96 97.8 96 160H83.8C71.7 160 60.6 166.8 55.2 177.7L6.8 274.5C2.3 283.4 0 293.2 0 303.1V352C0 369.7 14.3 384 32 384H232V464H144C135.2 464 128 471.2 128 480V496C128 504.8 135.2 512 144 512H368C376.8 512 384 504.8 384 496V480C384 471.2 376.8 464 368 464H280V384H480C497.7 384 512 369.7 512 352V303.1C512 293.2 509.7 283.4 505.2 274.5ZM256 48H288C296.8 48 304 55.2 304 64C304 72.8 296.8 80 288 80H256C247.2 80 240 72.8 240 64C240 55.2 247.2 48 256 48ZM464 336H48V303.1C48 300.6 48.6 298.1 49.7 296L93.7 208H418.4L462.4 296C463.5 298.2 464.1 300.7 464.1 303.2L464 336Z" fill="white"/>
</svg>
