<svg width="49" height="80" viewBox="0 0 49 80" fill="none" xmlns="http://www.w3.org/2000/svg">
<g clip-path="url(#clip0_356_22)">
<path d="M24.066 30.6436L26.1804 31.7117L31.8367 51.8117L29.4137 50.6179L28.1087 45.8449L22.0154 42.7664L20.7093 46.221L18.4097 45.0906L24.066 30.6436ZM27.2993 42.704L25.0605 34.7268L22.8227 40.4411L27.2993 42.704Z" fill="white"/>
<path d="M10.5755 2V14.688L1 9.91491V46.0951L10.5755 50.8692V63.5582L39.4245 78V65.3172L49 70.0903V21.1545L10.5755 2ZM10.5755 48.2344L3.36226 44.651V13.7467L10.5755 17.327V48.2344ZM37.0622 74.1735L12.8761 62.113V52.063L37.0622 64.1234V74.1735ZM37.0622 61.4855L12.9378 49.4251V18.5197L37.127 30.5801V61.4855H37.0622ZM46.6367 66.2648L39.4245 62.6834V29.136L12.9378 15.8817V5.83174L46.6994 22.6631V66.2596L46.6367 66.2648Z" fill="white"/>
<path d="M24.066 30.6436L26.1804 31.7117L31.8367 51.8117L29.4137 50.6179L28.1087 45.8449L22.0154 42.7664L20.7093 46.221L18.4097 45.0906L24.066 30.6436ZM27.2993 42.704L25.0605 34.7268L22.8227 40.4411L27.2993 42.704Z" stroke="white" stroke-width="0.75" stroke-miterlimit="10"/>
<path d="M10.5755 2V14.688L1 9.91491V46.0951L10.5755 50.8692V63.5582L39.4245 78V65.3172L49 70.0903V21.1545L10.5755 2ZM10.5755 48.2344L3.36226 44.651V13.7467L10.5755 17.327V48.2344ZM37.0622 74.1735L12.8761 62.113V52.063L37.0622 64.1234V74.1735ZM37.0622 61.4855L12.9378 49.4251V18.5197L37.127 30.5801V61.4855H37.0622ZM46.6367 66.2648L39.4245 62.6834V29.136L12.9378 15.8817V5.83174L46.6994 22.6631V66.2596L46.6367 66.2648Z" stroke="white" stroke-width="1.45957" stroke-miterlimit="10"/>
</g>
<defs>
<clipPath id="clip0_356_22">
<rect width="49" height="80" fill="white"/>
</clipPath>
</defs>
</svg>
