<svg width="68" height="68" viewBox="0 0 68 68" fill="none" xmlns="http://www.w3.org/2000/svg">
<path d="M21.4434 45.9002L31.9678 18.5107H36.4347L46.959 45.9002H42.2307L39.4198 38.3174H28.9391L26.1282 45.9002H21.4434ZM30.4207 34.3082H37.9163L34.1685 24.176L30.4207 34.3082Z" fill="white"/>
<path fill-rule="evenodd" clip-rule="evenodd" d="M34 68C52.7777 68 68 52.7777 68 34C68 28.7369 66.8041 23.7531 64.6693 19.3055C65.9651 17.4472 66.725 15.1873 66.725 12.75C66.725 6.41253 61.5875 1.275 55.25 1.275C52.8127 1.275 50.5528 2.03489 48.6945 3.33067C44.2469 1.19585 39.2631 0 34 0C15.2223 0 0 15.2223 0 34C0 52.7777 15.2223 68 34 68ZM43.775 12.75C43.775 11.0903 44.1274 9.51287 44.7614 8.08849C41.4476 6.71066 37.8126 5.95 34 5.95C18.5084 5.95 5.95 18.5085 5.95 34C5.95 49.4915 18.5084 62.05 34 62.05C49.4916 62.05 62.05 49.4915 62.05 34C62.05 30.1874 61.2893 26.5524 59.9115 23.2386C58.4871 23.8726 56.9097 24.225 55.25 24.225C48.9125 24.225 43.775 19.0875 43.775 12.75ZM51.433 6.8943V18.2753H56.1592C57.3604 18.2753 58.296 17.9976 58.966 17.4423C59.642 16.881 59.98 16.0842 59.98 15.052C59.98 14.4364 59.805 13.8871 59.4549 13.4042C59.1109 12.9153 58.6672 12.5803 58.124 12.3992C58.5585 12.2423 58.9177 11.9495 59.2014 11.5209C59.4851 11.0924 59.6269 10.5823 59.6269 9.9908C59.6269 8.98881 59.2889 8.22223 58.6129 7.69106C57.9368 7.15988 56.9952 6.8943 55.788 6.8943H51.433ZM55.96 16.2743H53.7146V13.4133H55.96C56.5093 13.4133 56.9288 13.54 57.2185 13.7935C57.5143 14.047 57.6622 14.3971 57.6622 14.8438C57.6622 15.2844 57.5143 15.6345 57.2185 15.8941C56.9288 16.1476 56.5093 16.2743 55.96 16.2743ZM55.6431 11.5662H53.7146V8.89525H55.6431C56.79 8.89525 57.3634 9.33287 57.3634 10.2081C57.3634 11.1135 56.79 11.5662 55.6431 11.5662Z" fill="white"/>
</svg>
