<svg width="58" height="58" viewBox="0 0 58 58" fill="none" xmlns="http://www.w3.org/2000/svg">
<path fill-rule="evenodd" clip-rule="evenodd" d="M16 4H42C48.6274 4 54 9.37258 54 16V42C54 48.6274 48.6274 54 42 54H16C9.37258 54 4 48.6274 4 42V16C4 9.37258 9.37258 4 16 4ZM0 16C0 7.16345 7.16344 0 16 0H42C50.8366 0 58 7.16344 58 16V42C58 50.8366 50.8366 58 42 58H16C7.16345 58 0 50.8366 0 42V16ZM43.9922 27.1914C44.8828 27.6367 45.625 28.0078 46.8867 28.1562C47.4805 28.2305 47.9258 28.75 48 29.3438V30.5312C48 31.1992 47.332 31.793 46.5898 31.7188C44.6602 31.4961 43.4727 30.9023 42.4336 30.3828C42.3802 30.3585 42.3175 30.3285 42.2459 30.2942C41.2234 29.8045 38.3764 28.4407 34.4922 30.3828C34.4348 30.4093 34.3656 30.4429 34.285 30.482C33.01 31.1006 28.8783 33.1052 23.4336 30.3828C22.2461 29.7891 19.4258 28.4531 15.4922 30.3828C14.4531 30.9023 13.2656 31.4961 11.3359 31.7188C10.5938 31.793 10 31.1992 10 30.5312V29.3438C10 28.75 10.4453 28.2305 11.0391 28.1562C12.3008 28.0078 13.043 27.6367 13.9336 27.1914C19.5132 24.4016 23.7829 26.5759 24.8819 27.1356C24.9232 27.1566 24.96 27.1753 24.9922 27.1914C25.0062 27.198 25.0205 27.2047 25.0349 27.2115C26.3152 27.8145 29.0438 29.0996 32.9336 27.1914C38.3783 24.469 42.51 26.4736 43.785 27.0922C43.8656 27.1313 43.9348 27.1649 43.9922 27.1914ZM12.375 12.125H45.625C46.8867 12.125 48 13.2383 48 14.5V21.625C48 22.9609 46.8867 24 45.625 24H12.375C11.0391 24 10 22.9609 10 21.625V14.5C10 13.2383 11.0391 12.125 12.375 12.125ZM13.5625 20.4375H44.4375V15.6875H13.5625V20.4375ZM12.375 33.5H45.625C46.8867 33.5 48 34.6133 48 35.875V43C48 44.3359 46.8867 45.375 45.625 45.375H12.375C11.0391 45.375 10 44.3359 10 43V35.875C10 34.6133 11.0391 33.5 12.375 33.5ZM13.5625 41.8125H44.4375V37.0625H41.4688L36.125 40.625L30.7812 37.0625H13.5625V41.8125Z" fill="white"/>
</svg>
