<svg width="314" height="284" viewBox="0 0 314 284" fill="none" xmlns="http://www.w3.org/2000/svg">
<path d="M71.3089 45.2455C71.4282 45.7255 72.6548 46.0679 74.9887 46.2728C75.267 47.3927 76.2083 47.9584 77.8127 47.9699L77.9319 48.4498L77.6059 48.9888L77.7252 49.4687C78.913 49.1755 79.5825 49.3328 79.7336 49.9408L79.4075 50.4798C80.8522 50.1231 83.0438 51.1952 85.9824 53.696C86.2846 54.9119 71.3192 60.8479 41.0862 71.5039C38.0042 72.2648 36.6301 75.168 36.9641 80.2136C36.5789 80.3087 36.2445 82.8025 35.9612 87.6948L36.3946 87.5878L48.0263 83.7993C49.8521 85.2503 51.1342 85.8847 51.8726 85.7024L52.4452 88.0062L53.6941 89.1242L53.8015 89.5562L52.4531 89.8891L52.5724 90.369L53.0058 90.262L55.6314 89.1044L58.603 89.3387L58.7222 89.8187L58.348 90.3695L58.4673 90.8495C60.3927 90.7817 61.419 91.0037 61.5462 91.5157C58.61 95.331 48.7748 101.138 32.0405 108.937C26.8507 130.968 23.675 143.486 22.5133 146.489C20.0734 147.092 18.9648 147.841 19.1874 148.737L18.754 148.844L17.1309 148.277L17.5051 147.726L17.0518 145.902L16.1368 146.128C16.3595 147.024 16.1658 147.547 15.5558 147.697C14.8611 146.273 13.9037 145.711 12.6837 146.012L12.7911 146.444C12.9802 148.028 12.7215 148.907 12.0153 149.081L11.4626 148.708L10.981 148.827L10.2927 149.965L7.90211 148.161C7.00319 148.383 6.43842 148.03 6.20781 147.102C4.85594 141.662 6.62484 128.694 11.5145 108.197C16.1152 87.7719 17.5528 74.0875 15.8272 67.1441C17.1773 62.294 18.9279 59.6034 21.0789 59.0724L28.8519 59.0892C44.6681 52.9432 58.8204 48.3286 71.3089 45.2455Z" fill="white"/>
<path d="M115.007 32.9803L115.488 32.8614C118.538 32.1085 122.348 34.2754 126.917 39.3621L127.518 39.7232L128.055 41.883C128.397 43.2589 126.379 45.0134 122.003 47.1466L122.11 47.5786C131.384 54.5943 136.971 61.9258 138.872 69.5732L139.421 71.781C144.128 90.7234 138.968 104.919 123.939 114.369C118.718 117.22 114.278 119.097 110.618 120.001L105.514 121.261C91.131 124.812 78.9564 120.04 68.9897 106.947C68.0431 106.977 66.7771 104.488 65.1916 99.4794L64.4163 96.3597C60.8855 82.1529 68.0183 66.7059 85.8147 50.0187C97.3463 40.6174 107.077 34.938 115.007 32.9803ZM82.55 96.111L82.6573 96.543C83.9217 101.631 87.8919 103.758 94.5678 102.925L98.2758 102.009C108.26 99.5444 116.103 91.5463 121.804 78.0151C122.372 74.6823 122.301 70.4888 121.59 65.4344C120.283 61.4101 119.214 59.0252 118.381 58.2799L118.492 56.877C116.56 52.6675 115.402 50.6102 115.016 50.7053C106.233 54.1642 97.1942 62.6274 87.8998 76.095C82.9734 83.9675 81.1901 90.6395 82.55 96.111Z" fill="white"/>
<path d="M149.202 24.6402L151.321 24.1171C155.784 23.0154 160.016 24.4836 164.018 28.5218L164.821 30.1065C165.401 32.4423 164.057 40.1946 160.787 53.3634C157.476 67.5954 157.128 79.9749 159.744 90.5021L160.054 91.75C166.141 85.2551 170.608 78.0732 173.457 70.2043C180.752 54.0381 184.631 42.7055 185.094 36.2065L186.251 30.1648C187.085 29.9587 187.399 29.4397 187.193 28.6078L187.519 28.0688L188.385 27.8548L188.803 29.5347L189.188 29.4396C188.782 24.5137 188.9 21.9716 189.542 21.8131L189.975 21.7061L190.393 23.3859L190.778 23.2908L189.943 19.9311L190.81 19.7171L191.12 20.965C191.988 20.2073 192.719 17.8024 193.313 13.7502L193.747 13.6432C197.184 15.5455 199.586 19.2483 200.954 24.7519C205.535 43.1823 198.845 67.0611 180.885 96.3881C177.026 100.329 172.191 103.017 166.38 104.452C155.625 107.107 147.492 104.955 141.98 97.995L139.909 93.1576L139.396 91.0937C136.66 80.0867 136.478 69.7567 138.849 60.1038L143.423 31.8232C144.9 27.621 146.827 25.2267 149.202 24.6402Z" fill="white"/>
<path d="M231.184 2.92353L234.94 1.99622C253.657 -2.62448 266.224 0.776557 272.64 12.1993L273.706 14.6361L274.016 15.884C274.931 19.5637 268.058 27.7638 253.399 40.4842C262.018 57.2045 267.202 69.0843 268.952 76.1237L269.493 76.4487L269.588 76.8326L269.477 78.2355L270.841 81.8722L270.514 82.4112L269.696 82.6133C269.417 81.4934 268.989 81.0047 268.412 81.1474C268.618 81.9793 268.449 82.4627 267.903 82.5974L267.036 82.8114L266.544 82.4746L266.11 82.5815C265.971 83.8045 265.693 84.4675 265.276 84.5705L263.049 84.6616L262.445 85.7277C261.903 84.3674 261.022 83.8378 259.802 84.139C252.763 74.8735 245.884 63.8535 239.165 51.0789L221.851 62.0267C221.095 66.3904 220.251 68.9589 219.319 69.7324L219.411 71.9513L218.159 72.2604L218.699 67.2367L218.592 66.8047L218.158 66.9117L217.184 72.0424L218.266 72.6923C217.207 72.9539 215.827 76.3848 214.128 82.985C213.751 83.1121 213.37 85.142 212.984 89.0748C212.406 89.2174 211.702 92.346 210.87 98.4604L210.437 98.5674C210.119 97.2875 208.444 96.5123 205.412 96.2419L204.808 97.308C204.665 96.732 204.16 96.551 203.293 96.765L202.149 97.5061C201.165 96.1528 200.123 95.527 199.024 95.6285L198.702 94.3326C197.024 87.5812 200.073 67.0126 207.849 32.6267C200.987 30.1094 197.255 27.6349 196.65 25.2031L196.137 23.1393C195.996 21.6119 200.541 17.8241 209.771 11.7758C210.627 9.18724 217.765 6.23649 231.184 2.92353ZM225.955 39.2617L226.822 39.0477C241.831 27.7351 250.605 19.5072 253.143 14.3639L253.036 13.9319L244.561 15.6166L243.742 15.8187C233.116 18.4421 228.113 21.0017 228.733 23.4975C227.518 32.7291 226.592 37.9839 225.955 39.2617Z" fill="white"/>
<path d="M64.0787 136.766C64.4031 138.072 65.2203 138.563 66.5301 138.239L66.7734 139.218L65.271 139.589L65.3998 140.108C67.0563 139.699 67.9657 139.82 68.1279 140.473L68.2567 140.992L66.292 141.477C66.5401 142.475 67.6465 142.731 69.6112 142.246L69.8545 143.226L68.3521 143.596L68.4666 144.057L74.4185 142.588L79.5413 143.952L79.15 144.598L79.2645 145.059C80.921 144.65 81.8352 144.791 82.007 145.482C82.3028 146.673 76.5019 149.49 64.6045 153.935C60.4439 154.962 53.0999 159.22 42.5723 166.71L39.7879 178.95L40.308 178.822C41.9178 177.731 46.9174 175.967 55.3068 173.529L56.6613 174.784L55.2877 175.674L55.4022 176.134C58.0603 175.478 59.4705 175.476 59.6327 176.129L57.4056 177.779L57.5201 178.24L58.5024 177.997L58.4123 179.609C58.8226 181.26 60.4616 182.261 63.3293 182.613L63.4438 183.074L63.1104 183.706L63.2249 184.167C64.8814 183.758 65.7955 183.899 65.9673 184.59L66.0818 185.051C66.3299 186.049 56.5629 191.252 36.7808 200.659C34.1997 201.296 32.1177 207.067 30.5346 217.972L64.7717 203.223L65.015 204.202L65.5351 204.074L67.8911 202.942C68.7251 204.489 69.7586 205.11 70.9913 204.805L71.3635 206.303C70.5545 206.502 69.8503 207.206 69.2508 208.413L68.2107 208.67L68.3252 209.131L71.33 208.389L71.5877 209.426L69.1029 210.039L69.7375 210.372L69.8663 210.89L69.4608 211.479C74.3533 210.271 77.1973 210.445 77.9928 212.001L77.6594 212.634C79.3731 212.455 80.3255 212.75 80.5163 213.518C78.0561 216.122 68.7469 221.028 52.5889 228.237C33.5794 236.475 24.3991 241.899 25.048 244.51C25.0151 246.352 23.8993 248.197 21.7006 250.043L21.1806 250.172L17.618 248.423L16.5779 248.68L14.2219 249.811C14.012 248.967 12.1696 248.545 8.6947 248.548L7.30679 249.379L6.67221 249.047L6.54339 248.529L6.69131 246.903L5.70896 247.145L5.31771 247.792L4.85543 247.906L4.20654 247.516L4.09203 247.055C4.39392 236.589 9.74518 205.887 20.1458 154.947C19.3252 151.645 21.1452 149.097 25.6058 147.303L45.0927 143.043L64.0787 136.766Z" fill="white"/>
<path d="M140.734 116.497L142.872 115.969C145.492 115.322 149.454 116.952 154.759 120.859L155.288 122.99C122.978 174.774 104.47 202.633 99.7636 206.565C100.117 207.986 99.4072 208.915 97.6351 209.353C97.9118 210.466 95.0851 215.626 89.1549 224.833C85.1183 230.801 83.0327 235.982 82.8981 240.376L80.3687 241.55C78.327 242.054 76.3976 241.777 74.5807 240.717L73.8125 242.068C72.7869 240.08 70.579 239.505 67.1889 240.342L62.4458 237.05L62.1738 235.956C60.8188 230.504 70.5002 213.769 91.2179 185.753C96.4833 176.832 99.0063 171.93 98.7868 171.047C82.0599 160.995 72.5609 151.4 70.2898 142.262L69.5026 139.095C70.7979 136.574 73.5451 134.796 77.7442 133.759L79.8244 133.246C86.3349 131.638 92.4874 135.336 98.2818 144.337C99.1596 147.87 103.17 151.913 110.312 156.466C113.178 153.191 119.925 142.01 130.555 122.922C134.144 119.428 137.537 117.286 140.734 116.497Z" fill="white"/>
<path d="M201.955 102.728C202.279 104.033 203.096 104.524 204.406 104.201L204.649 105.18L203.147 105.551L203.276 106.069C204.932 105.66 205.842 105.782 206.004 106.435L206.133 106.953L204.168 107.438C204.416 108.437 205.523 108.693 207.487 108.208L207.731 109.187L206.228 109.558L206.343 110.019L212.295 108.55L217.417 109.913L217.026 110.56L217.141 111.021C218.797 110.612 219.711 110.753 219.883 111.444C220.179 112.634 214.378 115.452 202.481 119.897C198.32 120.924 190.976 125.182 180.448 132.671L177.664 144.912L178.184 144.783C179.794 143.693 184.794 141.929 193.183 139.491L194.537 140.746L193.164 141.635L193.278 142.096C195.936 141.44 197.347 141.438 197.509 142.091L195.282 143.741L195.396 144.202L196.379 143.959L196.288 145.571C196.699 147.222 198.338 148.223 201.205 148.575L201.32 149.035L200.986 149.668L201.101 150.129C202.757 149.72 203.672 149.861 203.843 150.552L203.958 151.013C204.206 152.011 194.439 157.214 174.657 166.621C172.076 167.258 169.994 173.029 168.411 183.933L202.648 169.185L202.891 170.164L203.411 170.036L205.767 168.904C206.601 170.45 207.635 171.071 208.867 170.767L209.24 172.264C208.431 172.464 207.726 173.168 207.127 174.375L206.087 174.632L206.201 175.093L209.206 174.351L209.464 175.388L206.979 176.001L207.614 176.333L207.742 176.852L207.337 177.441C212.229 176.233 215.073 176.407 215.869 177.963L215.535 178.595C217.249 178.417 218.202 178.712 218.392 179.479C215.932 182.084 206.623 186.99 190.465 194.198C171.456 202.437 162.275 207.861 162.924 210.472C162.891 212.314 161.775 214.158 159.577 216.005L159.057 216.134L155.494 214.385L154.454 214.641L152.098 215.773C151.888 214.929 150.046 214.507 146.571 214.509L145.183 215.341L144.548 215.009L144.419 214.49L144.567 212.864L143.585 213.107L143.194 213.754L142.732 213.868L142.083 213.478L141.968 213.017C142.27 202.551 147.621 171.848 158.022 120.909C157.201 117.607 159.021 115.059 163.482 113.265L182.969 109.004L201.955 102.728Z" fill="white"/>
<path d="M271.192 80.9893L272.29 80.7182C273.908 80.3188 276.375 81.0341 279.692 82.864L280.341 83.254L280.861 83.1256L280.871 85.3849L282.994 91.7069C283.838 97.5705 282.584 100.916 279.232 101.743L275.996 102.542C261.974 106.004 245.624 115.155 226.947 129.994L227.204 131.031L227.724 130.903C254.301 126.624 269.519 126.657 273.379 131.001C276.246 131.842 278.123 134.048 279.01 137.619C280.967 149.605 281.001 155.832 279.114 156.298C272.522 164.323 264.763 171.353 255.836 177.387C242.332 186.06 223.509 196.778 199.369 209.543L198.72 209.154L198.577 208.578L201.947 206.095L201.675 205.001L196.053 207.55L195.909 206.974C195.709 206.168 196.462 205.412 198.167 204.706L197.909 203.669L196.291 204.068L196.019 202.974L197.117 202.703L196.988 202.185L193.48 201.889L193.872 201.243L193.471 199.63C192.045 199.982 191.199 199.62 190.932 198.545L190.541 199.192L189.443 199.463L189.314 198.945L189.705 198.298L189.576 197.78L188.536 198.036C188.355 197.307 187.725 197.075 186.646 197.342L186.518 196.823C186.069 195.019 199.328 186.427 226.294 171.049C243.905 159.652 253.912 152.454 256.316 149.456C225.347 154.983 209.31 155.519 208.203 151.065C204.047 149.646 201.416 146.709 200.31 142.255C199.289 138.147 200.248 132.796 203.189 126.202C224.948 101.88 247.615 86.8097 271.192 80.9893ZM198.726 200.044L198.854 200.563L199.952 200.292L199.824 199.773L198.726 200.044Z" fill="white"/>
<path d="M210.178 213.754C209.465 213.992 208.751 214.229 207.852 214.249C207.099 214.246 206.2 214.266 205.467 214.383C204.294 214.571 203.619 215.048 203.333 216.08C202.326 216.364 201.153 216.551 200.146 216.835C199.853 216.882 199.598 217.169 199.324 217.336C199.324 217.336 199.197 217.479 199.216 217.6C199.236 217.72 199.402 217.816 199.402 217.816C201.092 218.04 202.354 217.468 203.187 216.103C203.997 216.467 204.916 216.566 205.961 216.523C210.379 215.941 214.69 215.622 218.807 214.102C219.374 213.888 219.96 213.795 220.547 213.701C222.287 213.3 224.047 213.019 225.787 212.618C227.82 212.17 229.726 211.866 231.729 212.162C232.501 212.286 233.381 212.145 234.26 212.005C236.714 211.366 239.06 210.992 241.63 211.075C242.236 211.101 242.803 210.887 243.39 210.794C243.976 210.7 244.524 210.366 244.594 209.862C244.605 208.997 245.3 208.64 246.16 208.379C248.155 207.691 249.903 208.275 251.505 208.882C251.836 209.075 252.188 209.389 252.392 209.726C253.006 210.737 253.924 210.837 255.097 210.65C255.391 210.603 255.83 210.533 256.124 210.486C258.138 209.918 260.063 209.734 262.047 209.91C263.258 209.963 264.119 209.703 264.921 209.081C265.45 208.627 265.909 208.677 266.318 209.351C266.835 209.762 267.314 209.932 268.194 209.791C268.78 209.698 269.367 209.604 269.934 209.39C270.52 209.297 271.088 209.083 271.674 208.989C279.777 207.942 287.764 206.174 295.848 205.007C296.728 204.866 297.754 204.702 298.634 204.562C298.653 204.682 298.819 204.779 298.819 204.779C297.978 205.159 297.118 205.42 296.296 205.921C295.621 206.399 295.258 206.949 294.417 207.33C294.27 207.354 294.29 207.474 294.162 207.617C294.182 207.737 294.054 207.881 294.054 207.881C294.22 207.978 294.259 208.218 294.572 208.291C294.737 208.388 295.031 208.341 295.197 208.438C298.002 208.114 300.826 207.909 303.554 207.104C306.136 206.322 308.814 206.141 311.492 205.96C311.53 206.2 311.403 206.344 311.11 206.391C308.05 207.002 305.009 207.734 302.057 208.082C301.178 208.223 300.151 208.387 299.291 208.647C297.423 209.192 295.39 209.64 293.337 209.967C292.164 210.155 290.991 210.342 289.876 210.89C289.729 210.913 289.749 211.033 289.768 211.154C289.787 211.274 289.806 211.394 289.953 211.37C290.451 211.661 291.037 211.567 291.624 211.473C295.29 210.888 298.936 210.183 302.436 209.501C303.755 209.29 305.036 208.839 306.209 208.652C308.849 208.23 311.341 207.832 314 207.531C313.197 208.152 312.426 208.029 311.546 208.17C310.373 208.357 309.219 208.664 308.251 209.189C307.282 209.713 306.129 210.02 304.956 210.208C302.756 210.559 300.576 211.03 298.23 211.405C295.024 212.04 291.944 212.531 288.757 213.287C286.45 213.902 284.084 214.156 281.758 214.651C280.731 214.815 279.705 214.978 278.532 215.166C273.585 216.202 268.511 217.382 263.564 218.418C261.238 218.913 258.892 219.287 256.565 219.782C254.512 220.11 252.606 220.414 250.573 220.862C245.626 221.898 240.552 223.078 235.605 224.114C234.451 224.422 233.278 224.609 232.105 224.796C228.88 225.311 225.82 225.923 222.652 226.799C222.212 226.869 221.791 227.059 221.205 227.153C214.919 228.28 208.711 229.887 202.444 231.134C198.084 232.077 193.89 233.116 189.715 234.275C186.254 235.198 182.754 235.88 179.293 236.802C175.685 237.748 172.205 238.55 168.597 239.496C164.55 240.512 160.668 241.624 156.435 242.423C152.349 243.199 148.32 244.335 144.439 245.448C139.403 246.868 134.368 248.288 129.294 249.468C127.407 249.892 125.686 250.414 123.819 250.958C119.204 252.188 114.589 253.418 110.121 254.624C104.352 256.161 98.7496 257.795 92.981 259.332C89.9598 260.184 87.1045 261.133 84.0833 261.985C79.781 263.288 75.4594 264.471 71.1572 265.774C67.8427 266.673 64.5475 267.692 61.233 268.591C60.9398 268.638 60.5192 268.828 60.2259 268.875C55.1018 270.679 49.9198 272.123 44.6298 273.83C40.7674 275.063 37.0517 276.272 33.2086 277.625C29.7861 278.788 26.1783 279.734 22.7945 281.137C22.5012 281.184 22.3739 281.327 22.0806 281.374C17.0066 282.554 11.9326 283.734 6.70408 283.952C6.41082 283.999 5.95163 283.949 5.65838 283.996C3.7136 284.06 2.55202 283.383 1.88039 282.011C1.43263 281.096 1.27813 280.135 0.977005 279.197C-0.443503 275.973 0.0421549 272.445 0.253861 269.084C0.303927 268.459 0.519932 267.932 0.735938 267.404C1.14864 266.229 1.8546 265.007 2.10136 263.736C2.36743 262.584 3.40525 261.556 4.81358 260.961C6.07529 260.39 7.50295 259.915 8.78397 259.464C10.065 259.013 11.512 258.659 12.9589 258.305C13.2522 258.258 13.6921 258.188 13.966 258.021C17.0759 256.785 20.2631 256.03 23.373 254.794C27.9106 253.083 32.5061 251.733 37.2483 250.36C38.5293 249.909 39.9763 249.555 41.2573 249.104C45.5595 247.801 49.8618 246.498 54.1834 245.315C56.784 244.653 59.3461 243.751 61.9275 242.969C65.9558 241.833 69.7795 240.36 73.8658 239.584C74.7455 239.444 75.7333 239.04 76.5938 238.779C82.6362 237.075 88.6787 235.371 94.7212 233.666C95.5816 233.406 96.608 233.242 97.5457 233.462C98.6494 233.779 99.6758 233.615 100.702 233.451C101.435 233.334 102.149 233.097 102.346 232.449C102.543 231.802 103.09 231.468 103.804 231.23C107.559 230.261 111.313 229.292 115.214 228.3C120.122 227.023 125.03 225.746 129.938 224.47C133.106 223.594 136.44 222.816 139.627 222.06C140.488 221.8 141.24 221.803 142.12 221.662C142.286 221.759 142.158 221.903 141.884 222.07C141.757 222.213 141.63 222.357 141.522 222.62C141.414 222.884 141.912 223.174 142.205 223.128C144.609 223.114 146.955 222.739 149.243 222.004C151.971 221.199 154.699 220.393 157.427 219.588C159.001 219.09 160.595 218.713 162.208 218.455C164.554 218.081 166.919 217.826 169.246 217.332C171.611 217.077 173.293 216.316 175.014 215.794C175.582 215.581 176.149 215.367 176.735 215.273C177.028 215.226 177.175 215.203 177.488 215.276C177.654 215.373 177.966 215.446 177.986 215.566C178.005 215.687 178.043 215.927 177.916 216.071C177.662 216.358 177.534 216.501 177.114 216.692C176.438 217.169 175.559 217.31 174.845 217.547C172.391 218.185 170.064 218.68 167.61 219.318C166.896 219.555 166.329 219.769 165.8 220.223C165.037 221.085 164.126 221.969 163.216 222.854L163.254 223.095C163.273 223.215 163.439 223.312 163.439 223.312C163.586 223.288 163.899 223.361 164.192 223.315C166.333 222.603 168.552 222.372 170.47 221.203C170.89 221.013 171.33 220.943 171.77 220.872C172.21 220.802 172.63 220.612 173.032 220.301C173.541 219.727 174.108 219.513 174.606 219.803C175.582 220.264 176.609 220.1 177.635 219.936C179.229 219.558 180.784 218.94 181.949 217.768C182.203 217.481 182.477 217.314 182.751 217.147C183.172 216.957 183.739 216.743 184.052 216.816C185.449 217.086 186.876 216.612 188.176 216.281C190.484 215.666 192.359 216.106 193.803 217.601C193.274 218.055 192.726 218.389 192.344 218.82C192.07 218.987 192.294 219.444 192.607 219.518C193.818 219.571 194.328 218.996 194.027 218.058C193.988 217.818 193.822 217.721 193.783 217.481C195.037 215.925 196.789 214.66 198.228 213.321C199.069 212.94 199.548 213.11 200.153 213.136C202.889 213.316 205.498 213.639 208.245 212.954C208.978 212.837 209.711 212.72 210.279 212.506C212.273 211.818 214.454 211.346 216.526 211.139C218.285 210.858 220.025 210.457 221.746 209.936C224.621 209.107 227.133 208.829 230.417 208.675C229.29 210.087 227.608 210.848 225.702 211.153C224.822 211.293 223.815 211.577 222.916 211.598C219.964 211.946 217.031 212.414 214.176 213.363C212.914 213.934 211.556 213.904 210.178 213.754ZM149.274 225.943C149.714 225.873 150.008 225.826 150.135 225.682C153.156 224.83 156.1 223.497 159.141 222.765C159.287 222.742 159.395 222.478 159.523 222.335C159.777 222.048 159.534 221.47 159.075 221.42C158.01 221.344 156.983 221.508 155.996 221.912C154.715 222.363 153.561 222.67 152.241 222.881C151.215 223.045 150.208 223.329 149.201 223.613C147.48 224.134 145.74 224.535 143.98 224.816C143.247 224.933 142.406 225.314 141.692 225.551C141.545 225.575 141.291 225.862 141.31 225.982C141.329 226.102 141.515 226.319 141.808 226.272C142.726 226.372 143.733 226.088 144.544 226.452C145.354 226.815 145.883 226.361 146.245 225.81C146.735 225.116 147.341 225.142 148.132 225.386C148.503 225.819 148.962 225.869 149.274 225.943ZM247.719 210.595C245.813 210.9 244.347 211.134 243.105 211.825C242.977 211.969 242.85 212.112 242.723 212.256C242.595 212.399 243.093 212.69 243.533 212.619C245.624 212.532 247.511 212.108 249.34 211.323C249.487 211.299 249.467 211.179 249.614 211.156C249.595 211.035 249.722 210.892 249.722 210.892C249.703 210.772 249.498 210.435 249.352 210.458C248.599 210.455 247.866 210.572 247.719 210.595ZM211.495 220.076C212.209 219.839 213.235 219.675 214.077 219.294C214.37 219.247 214.79 219.057 214.898 218.793C215.026 218.65 215.134 218.386 215.114 218.266C215.095 218.146 214.91 217.929 214.597 217.855C214.431 217.759 214.138 217.805 213.972 217.709C212.321 217.726 210.766 218.344 209.415 219.299L209.307 219.563C209.512 219.9 209.697 220.117 209.844 220.093C210.303 220.143 210.889 220.049 211.495 220.076ZM219.718 217.901C220.578 217.64 221.311 217.523 222.172 217.262C222.465 217.215 222.739 217.048 222.828 216.665C222.936 216.401 222.291 216.134 221.705 216.228C220.825 216.368 219.799 216.532 218.938 216.793C218.792 216.816 218.518 216.983 218.39 217.127C218.263 217.27 218.155 217.534 218.321 217.631C218.34 217.751 218.526 217.968 218.819 217.921C218.985 218.018 219.425 217.947 219.718 217.901ZM281.673 213.185C283.266 212.808 284.567 212.477 285.886 212.266C286.179 212.219 286.307 212.076 286.268 211.836C286.249 211.715 286.102 211.739 285.956 211.762C284.617 211.853 283.424 211.92 282.105 212.13C281.078 212.294 280.052 212.458 279.083 212.983C278.937 213.006 278.809 213.15 278.975 213.246C279.141 213.343 279.18 213.583 279.327 213.56C280.206 213.42 281.086 213.279 281.673 213.185ZM182.987 221.423C180.382 219.251 180.41 220.356 178.677 221.741C178.531 221.765 178.55 221.885 178.569 222.005C178.589 222.125 178.461 222.269 178.608 222.246C178.793 222.462 178.959 222.559 179.106 222.536C180.445 222.445 181.618 222.258 182.733 221.71C182.879 221.687 183.007 221.543 182.987 221.423ZM171.655 224.834C172.369 224.597 173.082 224.36 173.796 224.123C174.217 223.932 174.433 223.405 174.267 223.308C174.101 223.212 173.935 223.115 173.769 223.018C172.557 222.965 171.404 223.272 170.455 223.917C170.308 223.94 170.327 224.06 170.347 224.181C170.366 224.301 170.405 224.541 170.57 224.638C170.883 224.711 171.176 224.664 171.655 224.834ZM221.367 224.416C220.946 224.606 220.232 224.843 219.665 225.057C219.518 225.08 219.576 225.441 219.596 225.561C219.596 225.561 219.762 225.658 219.908 225.634C220.973 225.711 221.98 225.427 222.802 224.926C222.949 224.903 222.91 224.662 222.871 224.422C222.871 224.422 222.705 224.325 222.559 224.349C222.266 224.395 221.826 224.466 221.367 224.416ZM241.454 221.209C241.875 221.018 242.315 220.948 242.736 220.758C242.882 220.734 242.824 220.374 242.805 220.253C242.805 220.253 242.639 220.157 242.62 220.037C241.848 219.913 240.968 220.054 240.274 220.411C240.127 220.435 240.185 220.795 240.058 220.939C240.058 220.939 240.224 221.035 240.243 221.156C240.702 221.205 241.015 221.279 241.454 221.209ZM148.484 230.382C148.905 230.192 149.472 229.978 150.039 229.764C150.039 229.764 149.981 229.404 149.962 229.284C149.151 228.92 148.418 229.037 147.743 229.515C147.596 229.538 147.469 229.682 147.488 229.802C147.508 229.922 147.4 230.186 147.566 230.283C147.712 230.259 148.025 230.332 148.484 230.382ZM279.762 210.656C278.844 210.556 277.964 210.696 276.976 211.101C276.83 211.124 276.702 211.268 276.702 211.268C276.741 211.508 276.907 211.605 277.2 211.558C277.933 211.441 278.5 211.227 279.214 210.99C279.38 211.087 279.488 210.823 279.762 210.656ZM200.912 230.023C201.059 229.999 201.352 229.953 201.48 229.809C201.607 229.665 201.734 229.522 201.715 229.402C201.696 229.282 201.383 229.208 201.217 229.112C201.07 229.135 200.777 229.182 200.631 229.205C200.484 229.229 200.229 229.516 200.249 229.636C200.121 229.779 200.6 229.95 200.912 230.023ZM188.501 220.173C188.482 220.053 188.463 219.933 188.316 219.956C187.984 219.763 187.398 219.856 187.143 220.143C187.016 220.287 187.054 220.527 187.22 220.624C187.405 220.841 187.845 220.771 188.119 220.604C188.266 220.58 188.374 220.317 188.501 220.173ZM177.85 235.307C177.996 235.284 178.29 235.237 178.436 235.213C178.563 235.07 178.691 234.926 178.818 234.783C178.652 234.686 178.486 234.589 178.34 234.613C178.193 234.636 177.9 234.683 177.753 234.706C177.626 234.85 177.498 234.993 177.371 235.137C177.537 235.234 177.703 235.33 177.85 235.307ZM228.061 223.963C228.208 223.94 228.482 223.773 228.629 223.749C228.756 223.606 228.864 223.342 228.845 223.222C228.825 223.102 228.493 222.908 228.347 222.932C228.053 222.978 227.614 223.049 227.34 223.216C227.212 223.359 227.104 223.623 227.124 223.743C227.143 223.863 227.456 223.937 227.621 224.033C227.787 224.13 227.915 223.986 228.061 223.963ZM137.374 224.885C137.833 224.935 138.088 224.648 138.196 224.384C138.304 224.12 137.953 223.807 137.659 223.853C137.2 223.803 136.946 224.091 136.838 224.354C136.71 224.498 136.915 224.835 137.374 224.885ZM265.127 214.102C265.42 214.055 265.566 214.031 265.84 213.864C265.968 213.721 266.095 213.577 266.222 213.434C266.076 213.457 266.056 213.337 265.91 213.36C265.617 213.407 265.451 213.31 265.177 213.477C264.737 213.548 264.335 213.858 264.521 214.075C264.667 214.052 264.961 214.005 265.127 214.102ZM237.413 213.843C237.853 213.773 238.274 213.582 238.088 213.365C238.069 213.245 237.737 213.052 237.591 213.075C237.131 213.025 236.73 213.336 236.915 213.553C237.081 213.649 237.247 213.746 237.413 213.843ZM223.908 214.027L223.723 213.81L223.761 214.051L223.908 214.027ZM196.934 230.535C197.081 230.511 197.081 230.511 197.208 230.368C197.189 230.248 197.189 230.248 197.023 230.151C196.876 230.174 196.876 230.174 196.749 230.318C196.749 230.318 196.915 230.415 196.934 230.535Z" fill="white"/>
<path d="M198.691 211.521C197.792 211.542 196.765 211.706 195.72 211.749C195.72 211.749 195.554 211.652 195.534 211.532C195.515 211.412 195.662 211.389 195.642 211.269C195.789 211.245 195.77 211.125 195.916 211.102C199.397 210.299 203.004 209.354 206.485 208.552C207.071 208.458 207.658 208.364 208.264 208.391C208.41 208.367 208.576 208.464 208.449 208.608C208.468 208.728 208.36 208.992 208.233 209.135C208.106 209.279 207.812 209.326 207.685 209.469C204.918 210.034 201.859 210.646 198.691 211.521Z" fill="white"/>
<path d="M238.597 208.108C237.864 208.225 236.984 208.366 236.251 208.483C236.251 208.483 236.085 208.386 236.066 208.266C236.046 208.145 236.027 208.025 236.027 208.025C236.664 207.307 237.632 206.783 238.639 206.499C239.646 206.215 240.565 206.315 241.267 206.942C241.286 207.062 241.452 207.159 241.452 207.159C241.344 207.423 241.236 207.687 241.09 207.71C240.229 207.971 239.496 208.088 238.597 208.108C238.616 208.228 238.616 208.228 238.597 208.108Z" fill="white"/>
<path d="M183.743 214.894C183.137 214.867 182.678 214.817 182.072 214.791C181.925 214.814 181.906 214.694 181.887 214.574C181.867 214.454 181.956 214.07 182.103 214.046C183.218 213.499 184.283 213.575 185.367 213.772C185.367 213.772 185.533 213.869 185.552 213.989C185.572 214.109 185.444 214.252 185.444 214.252C184.896 214.586 184.329 214.8 183.743 214.894Z" fill="white"/>
<path d="M160.969 217.297C163.863 216.589 165.985 215.757 168.184 215.406C168.331 215.382 168.478 215.359 168.497 215.479C168.682 215.696 168.536 215.72 168.262 215.887C166.139 216.718 163.921 216.949 160.969 217.297Z" fill="white"/>
<path d="M182.986 212.057C181.323 212.939 179.417 213.243 177.53 213.667C178.44 212.783 179.154 212.545 182.986 212.057Z" fill="white"/>
<path d="M245.569 205.639C245.697 205.496 245.785 205.112 245.913 204.968C246.314 204.658 246.754 204.587 247.213 204.637C247.506 204.59 247.838 204.784 247.857 204.904C248.101 205.482 247.337 206.343 246.604 206.46C246.164 206.53 245.793 206.096 245.569 205.639Z" fill="white"/>
<path d="M256.189 207.148C256.208 207.268 256.227 207.388 256.081 207.412C255.66 207.602 255.24 207.793 254.819 207.983C254.672 208.006 254.653 207.886 254.506 207.91C254.34 207.813 254.302 207.573 254.576 207.406C254.977 207.095 255.417 207.025 255.876 207.075C256.023 207.051 256.042 207.171 256.189 207.148Z" fill="white"/>
<path d="M154.595 218.808C155.181 218.714 155.621 218.644 156.061 218.574C155.494 218.788 155.494 218.788 154.595 218.808Z" fill="white"/>
<path d="M147.672 220.653C147.526 220.676 147.526 220.676 147.379 220.699C147.526 220.676 147.506 220.556 147.653 220.532C147.653 220.532 147.8 220.509 147.966 220.606C147.819 220.629 147.672 220.653 147.672 220.653Z" fill="white"/>
<path d="M260.441 206.469C260.422 206.349 260.275 206.372 260.256 206.252C260.236 206.132 260.383 206.109 260.383 206.109C260.676 206.062 260.842 206.159 260.588 206.446C260.734 206.422 260.588 206.446 260.441 206.469Z" fill="white"/>
</svg>
