<svg width="165" height="58" viewBox="0 0 165 58" fill="none" xmlns="http://www.w3.org/2000/svg">
<path d="M79.1988 56.7917C79.1988 57.459 78.6563 58 77.9871 58H68.2797C67.6105 58 67.068 57.459 67.068 56.7917V1.20827C67.068 0.540961 67.6105 0 68.2797 0H77.9871C78.6563 0 79.1988 0.540961 79.1988 1.20827V56.7917Z" fill="white"/>
<path d="M38.1586 11.856C41.6399 11.856 44.8802 12.3367 47.8794 13.298C50.8786 14.2593 53.5297 15.6478 55.8327 17.4636C58.1357 19.2794 59.9567 21.6827 61.2956 24.6734C62.6346 27.6107 63.3041 30.9752 63.3041 34.767C63.3041 38.6122 62.6346 42.0302 61.2956 45.0209C59.9567 47.9582 58.1357 50.3347 55.8327 52.1505C53.5297 53.9663 50.8786 55.3548 47.8794 56.3161C44.8802 57.224 41.6399 57.678 38.1586 57.678C34.6774 57.678 31.4371 57.224 28.4379 56.3161C25.4386 55.3548 22.7875 53.9663 20.4845 52.1505C18.1816 50.2813 16.3606 47.8781 15.0216 44.9408C13.6827 41.9501 13.0132 38.5588 13.0132 34.767C13.0132 32.276 13.3029 29.9664 13.8822 27.8381C14.0207 27.3291 14.4917 26.9879 15.0206 26.9879H24.8427C25.8668 26.9879 26.4915 28.2338 26.086 29.1715C25.4045 30.7473 25.0637 32.6392 25.0637 34.8471C25.0637 38.8525 26.2152 41.8165 28.5182 43.7391C30.8748 45.6083 34.0882 46.5429 38.1586 46.5429C42.1755 46.5429 45.3622 45.5816 47.7187 43.659C50.0753 41.683 51.2535 38.719 51.2535 34.767C51.2535 32.0967 50.6912 29.8804 49.5665 28.118C48.4418 26.3022 46.9154 24.9938 44.9873 24.1927C43.0592 23.3916 40.783 22.9911 38.1586 22.9911C38.0582 22.9911 37.9582 22.9917 37.8588 22.9929C35.3076 22.9518 23.1271 22.7642 16.9144 22.8246C16.4971 22.8286 16.2399 22.3785 16.4677 22.0298C18.8243 18.505 25.5458 14.3394 25.5458 14.3394C25.5458 14.3394 33.4455 11.856 38.1586 11.856Z" fill="white"/>
<path d="M83.9356 56.7917C83.9356 57.459 84.4781 58 85.1473 58H94.8547C95.5239 58 96.0664 57.459 96.0664 56.7917V1.20827C96.0664 0.540961 95.5239 0 94.8547 0H85.1473C84.4781 0 83.9356 0.540961 83.9356 1.20827V56.7917Z" fill="white"/>
<path d="M112.934 56.7917C112.934 57.459 112.391 58 111.722 58H102.015C101.346 58 100.803 57.459 100.803 56.7917V17.1633C100.803 16.496 101.346 15.955 102.015 15.955H111.722C112.391 15.955 112.934 16.496 112.934 17.1633V56.7917Z" fill="white"/>
<path d="M112.934 10.6285C112.934 11.2958 112.391 11.8367 111.722 11.8367H102.015C101.346 11.8367 100.803 11.2958 100.803 10.6285V1.25181C100.803 0.584501 101.346 0.0435402 102.015 0.0435402H111.722C112.391 0.0435402 112.934 0.5845 112.934 1.25181V10.6285Z" fill="white"/>
<path fill-rule="evenodd" clip-rule="evenodd" d="M128.638 39.4173C128.47 38.7027 129.041 38.0515 129.777 38.0515H164.294C164.573 38.0515 164.813 37.8523 164.852 37.5769C165.047 36.1975 165.049 34.6467 164.857 32.9245C164.696 30.9485 164.375 29.0259 163.893 27.1567C163.411 25.2875 162.473 23.3916 161.081 21.469C159.742 19.5464 158.055 17.8909 156.02 16.5023C151.949 13.6718 146.861 12.2566 140.756 12.2566C136.953 12.2566 133.525 12.7639 130.473 13.7786C127.473 14.7399 124.929 16.1819 122.841 18.1045C120.805 20.0271 119.225 22.4036 118.101 25.2341C117.03 28.0646 116.494 31.3224 116.494 35.0073C116.494 39.9207 117.431 44.0863 119.306 47.5042C121.234 50.8688 123.992 53.4055 127.58 55.1145C131.169 56.8235 135.561 57.678 140.756 57.678C147.986 57.678 153.61 56.3161 157.626 53.5925C161.266 51.0764 163.52 47.6837 164.39 43.4142C164.535 42.6994 163.967 42.0569 163.236 42.0569H153.569C153.062 42.0569 152.62 42.3781 152.376 42.8212C150.837 45.6228 146.963 47.0236 140.756 47.0236C136.846 47.0236 133.9 46.3026 131.919 44.8607C130.291 43.5982 129.197 41.7837 128.638 39.4173ZM130.505 29.9605C129.69 29.9605 129.106 29.1698 129.462 28.4386C131.252 24.7535 135.017 22.911 140.756 22.911C142.791 22.911 144.558 23.1246 146.058 23.5519C147.557 23.9257 148.736 24.4865 149.593 25.2341C150.45 25.9818 151.092 26.7295 151.521 27.4772C151.697 27.7635 151.865 28.0725 152.024 28.4042C152.379 29.1487 151.791 29.9605 150.964 29.9605H130.505Z" fill="white"/>
<path d="M22.6012 11.8958H38.1067C46.5257 15.5261 38.1067 18.1024 38.1067 22.7867C12.8497 22.7867 13.2095 24.7935 3.34048 16.5215C-5.22673 8.07867 4.8911 1.97702 9.13212 6.7496C13.2519 12.4889 18.9873 11.8567 22.6012 11.8958Z" fill="white"/>
<path d="M20.5222 19.6173H40.5155V23.0005H20.5222V19.6173Z" fill="white"/>
</svg>
